<svg width="30" height="27" viewBox="0 0 30 27" fill="none" xmlns="http://www.w3.org/2000/svg">
<path d="M15 27L12.825 25.0872C10.3 22.8556 8.2125 20.9305 6.5625 19.312C4.9125 17.6935 3.6 16.2405 2.625 14.953C1.65 13.6655 0.96875 12.4823 0.58125 11.4033C0.19375 10.3243 0 9.22071 0 8.09264C0 5.78747 0.7875 3.8624 2.3625 2.31744C3.9375 0.77248 5.9 0 8.25 0C9.55 0 10.7875 0.269755 11.9625 0.809264C13.1375 1.34877 14.15 2.10899 15 3.08992C15.85 2.10899 16.8625 1.34877 18.0375 0.809264C19.2125 0.269755 20.45 0 21.75 0C24.1 0 26.0625 0.77248 27.6375 2.31744C29.2125 3.8624 30 5.78747 30 8.09264C30 9.22071 29.8063 10.3243 29.4188 11.4033C29.0313 12.4823 28.35 13.6655 27.375 14.953C26.4 16.2405 25.0875 17.6935 23.4375 19.312C21.7875 20.9305 19.7 22.8556 17.175 25.0872L15 27ZM15 23.0272C17.4 20.9183 19.375 19.1097 20.925 17.6015C22.475 16.0933 23.7 14.7813 24.6 13.6655C25.5 12.5497 26.125 11.5565 26.475 10.686C26.825 9.8154 27 8.95095 27 8.09264C27 6.62125 26.5 5.3951 25.5 4.41417C24.5 3.43324 23.25 2.94278 21.75 2.94278C20.575 2.94278 19.4875 3.26771 18.4875 3.91758C17.4875 4.56744 16.8 5.3951 16.425 6.40055H13.575C13.2 5.3951 12.5125 4.56744 11.5125 3.91758C10.5125 3.26771 9.425 2.94278 8.25 2.94278C6.75 2.94278 5.5 3.43324 4.5 4.41417C3.5 5.3951 3 6.62125 3 8.09264C3 8.95095 3.175 9.8154 3.525 10.686C3.875 11.5565 4.5 12.5497 5.4 13.6655C6.3 14.7813 7.525 16.0933 9.075 17.6015C10.625 19.1097 12.6 20.9183 15 23.0272Z" fill="#0060D2"/>
</svg>
