<?xml version="1.0" encoding="UTF-8"?>
<svg id="Camada_2" data-name="Camada 2" xmlns="http://www.w3.org/2000/svg" xmlns:xlink="http://www.w3.org/1999/xlink" viewBox="0 0 495 657.81">
  <defs>
    <style>
      .cls-1 {
        fill: url(#Gradiente_sem_nome);
      }

      .cls-2 {
        fill: url(#Gradiente_sem_nome_2);
      }

      .cls-3, .cls-4, .cls-5 {
        fill: none;
      }

      .cls-4 {
        clip-path: url(#clippath);
      }

      .cls-6 {
        fill: url(#Gradiente_sem_nome-2);
      }

      .cls-5 {
        opacity: .65;
      }
    </style>
    <clipPath id="clippath">
      <rect class="cls-3" width="495" height="657.81"/>
    </clipPath>
    <linearGradient id="Gradiente_sem_nome" data-name="Gradiente sem nome" x1="357.5" y1="-655.29" x2="211.38" y2="-738.57" gradientTransform="translate(0 -551.89) scale(1 -1)" gradientUnits="userSpaceOnUse">
      <stop offset="0" stop-color="#01a1e0" stop-opacity=".8"/>
      <stop offset="1" stop-color="#01a1e0" stop-opacity="0"/>
    </linearGradient>
    <linearGradient id="Gradiente_sem_nome_2" data-name="Gradiente sem nome 2" x1="434.95" y1="-792.79" x2="288.82" y2="-876.08" gradientTransform="translate(0 -551.89) scale(1 -1)" gradientUnits="userSpaceOnUse">
      <stop offset="0" stop-color="#01a1e0"/>
      <stop offset="1" stop-color="#01a1e0" stop-opacity="0"/>
    </linearGradient>
    <linearGradient id="Gradiente_sem_nome-2" data-name="Gradiente sem nome" x1="359.5" y1="-1012.29" x2="213.38" y2="-1095.57" xlink:href="#Gradiente_sem_nome"/>
  </defs>
  <g id="Camada_2-2" data-name="Camada 2">
    <g class="cls-4">
      <g id="Camada_1-2" data-name="Camada 1-2">
        <g>
          <path class="cls-1" d="m529.54,133.42c-1.12-11.33-4.28-22.07-9.42-32.27-6.45-12.78-15.41-23.38-26.81-32.08-6.72-5.14-14.1-9.16-22-12.25-4.35-1.65-8.76-2.96-13.31-3.95-3.56-.79-7.25-1.32-10.87-1.65-6.72-.66-13.44-.59-20.22.33-7.25.99-14.36,2.77-21.14,5.4-.33.13-.66.2-.99.33-.13-.13-.2-.2-.26-.26-.13-.26-.33-.59-.46-.86-3.56-6.59-7.9-12.51-13.17-17.78-11.46-11.39-25.1-18.51-41.03-21.14-7.64-1.25-15.28-1.25-22.92-.07-15.08,2.37-28.26,8.89-39.45,19.23-.4.33-.72.66-1.19,1.05-.46-.66-.86-1.19-1.25-1.71-2.31-3.16-4.87-6.06-7.64-8.83-13.24-13.04-29.05-20.88-47.49-23.38-6.92-.92-13.9-.99-20.88-.13-5.14.66-10.21,1.71-15.15,3.36-4.08,1.38-8.17,2.96-12.05,4.94-6.39,3.29-12.19,7.44-17.72,11.99-1.84,1.51-3.43,3.23-5.07,5.01-1.38,1.51-2.63,3.16-3.95,4.74-2.63,3.23-4.94,6.65-7.11,10.14-1.19,1.84-2.04,3.89-3.03,5.93-1.12,2.37-2.17,4.81-3.16,7.25-.46,1.05-.66,2.17-.99,3.29-.33.99-.79,1.91-1.05,2.9-.53,2.11-.92,4.22-1.38,6.39-.2.99-.46,1.91-.66,2.9-.13.79-.4,1.65-.26,2.44.13,1.05-.07,2.04-.33,2.96v.79c0,.07.13.2.13.26-.26,4.74-.26,9.55.13,14.29.07.53-.13,1.05,0,1.51.2,1.05.46,2.04.66,3.03.4,2.5.72,5.01,1.45,7.44.59,1.84.79,3.82,1.65,5.66.66,1.32.99,2.83,1.51,4.28-1.32.79-2.57,1.58-3.82,2.31-4.08,2.57-7.9,5.47-11.46,8.69-.86.79-1.58,1.71-2.37,2.57-2.77,3.03-5.4,6.13-7.71,9.62-3.75,5.66-6.72,11.66-8.69,18.18-.66,2.04-1.05,4.15-1.71,6.19-.59,1.84-.86,3.75-1.12,5.66-.13,1.05-.13,2.17-.2,3.23-.13,2.83-.26,5.73-.26,8.56,0,2.37.2,4.74.4,7.11.13,1.45.4,2.9.66,4.35s.66,2.9,1.05,4.28c.2.72.33,1.45.59,2.11.86,2.57,1.71,5.14,2.7,7.71.59,1.58,1.12,3.1,1.91,4.54,1.25,2.44,2.63,4.81,3.95,7.18.2.2.4.4.59.59,1.25,1.71,2.5,3.43,3.69,5.14.13.2.26.46.4.72.13.2.26.33.4.53,1.05.46,1.51,1.38,1.98,2.31.53.53,1.05,1.12,1.58,1.65,1.05.59,1.98,1.32,2.44,2.44l.26.26c.72.13,1.19.53,1.38,1.25.33.2.59.4.92.59.26.33.53.59.72.86h0c.72.07,1.25.46,1.45,1.19.13.07.33.2.46.26.66.2,1.25.4,1.45,1.19.33.2.66.46.99.66.46.26.99.46,1.45.72.72.46,1.45.99,2.17,1.45l.53.53c.92.2,1.71.53,2.24,1.38.53.26,1.12.46,1.65.72.72.2,1.51.4,1.98,1.12l.53.13c.66.33,1.25.66,1.91.92.13.07.2.13.33.2.2,0,.33.07.53.07.53.2,1.19.13,1.38.79.92.33,1.84.66,2.77.99,1.19-.07,2.17.46,3.16.86.33.13.66.26.99.4.4.07.79.07,1.19.13.46.2.92.33,1.38.53.4.07.72.07,1.12.07.72.2,1.51.4,2.24.59.4,0,.72.07,1.12.07.4.13.72.2,1.12.33.4,0,.72.07,1.12.07l2.77.4c.13.07.2.13.33.2.26-.07.53-.2.79-.2,2.44.07,4.87.2,7.38.33.2.33.4.33.59,0,1.05-.07,2.04-.13,3.1-.13h1.12c.4-.07.79-.13,1.25-.2,1.12-.2,2.31-.4,3.43-.53,1.19-.13,1.45.13,1.58,1.45.66.4.79,1.05.72,1.71,0,.07.07.2.07.26.59.33.66.86.72,1.45.07.2.13.46.26.66.66,1.51,1.32,3.03,1.98,4.54.33.59.66,1.12.99,1.65,0,.13.07.2.07.33.59.4.92.92.92,1.65.13.2.26.4.4.66.72,1.12,1.38,2.24,2.11,3.36.07.13.13.33.2.53.99.59,1.58,1.58,1.91,2.63.66.26.99.79,1.05,1.45.79.33,1.19.99,1.38,1.78.26.26.46.59.72.86.99.33,1.32,1.25,1.71,2.04.72.72,1.38,1.51,2.11,2.24.79.46,1.58.86,1.91,1.84.26.26.53.53.86.79.72.13,1.19.53,1.38,1.25.33.2.59.4.86.59.26.26.46.59.72.86,1.12.4,1.98,1.05,2.5,2.11.13.07.33.2.46.26.99.66,2.04,1.32,3.03,1.98.26.26.53.53.79.79.72.07,1.25.33,1.58,1.05.13.07.2.13.33.2.46.2.92.46,1.38.66.4.26.79.59,1.25.86,1.51.79,3.03,1.45,4.54,2.24,4.68,2.24,9.48,4.02,14.49,5.27,1.12.26,2.24.4,3.23.79,1.12.46,2.31.53,3.43.72,1.45.26,2.96.33,4.48.46.26.4.53.4.86.07.53,0,1.05,0,1.51.07,5.47.26,10.87.33,16.27-.59,8.1-1.38,15.87-3.69,23.19-7.44,8.17-4.22,15.35-9.62,21.6-16.4,4.74-5.14,8.76-10.8,11.86-17.13.33-.72.79-1.38,1.19-2.04.92.4,1.65.72,2.37,1.05,1.98.86,3.89,1.71,5.86,2.57,2.63,1.19,5.4,1.65,8.17,2.31.59.13,1.19.53,1.84.59,1.65.26,3.29.33,5.01.59,5.01.66,11.79.72,17.98-.26,7.11-1.12,13.83-3.16,20.22-6.52,2.83-1.51,5.6-3.16,8.3-5.01,4.35-2.96,8.23-6.59,11.66-10.54.92-1.05,1.91-2.04,2.77-3.16,1.38-1.84,2.57-3.82,3.89-5.73.13-.2.4-.26.59-.4.2.07.33.2.53.33.4,0,.72.07,1.12.07.2.07.4.2.53.26.33,0,.66,0,.99.07,1.05.33,2.17.53,3.29.59s2.31-.07,3.36.66c.2-.26.26-.26.53.07.66-.07,1.25-.13,1.91-.13,2.83.13,5.66.4,8.56.4,2.24.07,4.48-.13,6.72-.2h1.12c.33-.07.72-.2,1.05-.26,4.15-.46,8.3-1.05,12.38-2.04,6.98-1.78,13.77-4.22,20.22-7.51,8.69-4.48,16.47-10.21,23.32-17.19,9.48-9.62,16.47-20.81,21.08-33.46,1.84-5.07,3.16-10.28,4.08-15.54,1.19-8.37,1.51-16.86.59-25.42h0l-.06-.05Z"/>
          <path class="cls-2" d="m607,270.88c-1.12-11.33-4.28-22.07-9.42-32.27-6.45-12.78-15.41-23.38-26.81-32.08-6.72-5.14-14.1-9.16-22-12.25-4.35-1.65-8.76-2.96-13.31-3.95-3.56-.79-7.18-1.32-10.87-1.65-6.72-.66-13.44-.59-20.22.33-7.25.99-14.36,2.77-21.14,5.4-.33.13-.66.2-.99.33-.13-.13-.2-.2-.26-.26-.2-.26-.33-.59-.46-.86-3.49-6.59-7.9-12.51-13.17-17.78-11.39-11.39-25.1-18.51-41.04-21.14-7.64-1.25-15.28-1.25-22.92-.07-15.08,2.37-28.26,8.89-39.45,19.23-.4.33-.72.66-1.19,1.05-.46-.66-.86-1.19-1.25-1.71-2.31-3.16-4.87-6.06-7.64-8.83-13.24-13.04-29.05-20.88-47.49-23.38-6.92-.92-13.9-.99-20.88-.13-5.14.66-10.21,1.71-15.15,3.36-4.08,1.38-8.17,2.96-12.05,4.94-6.39,3.29-12.19,7.44-17.72,11.99-1.84,1.51-3.43,3.23-5.07,5.01-1.38,1.51-2.63,3.16-3.95,4.74-2.63,3.23-4.94,6.65-7.11,10.14-1.19,1.84-2.04,3.89-3.03,5.93-1.12,2.37-2.17,4.81-3.16,7.25-.46,1.05-.66,2.17-.99,3.29-.33.99-.79,1.91-1.05,2.9-.53,2.11-.92,4.22-1.38,6.39-.2.99-.46,1.91-.66,2.9-.13.79-.4,1.65-.26,2.44.13,1.05-.07,2.04-.33,2.96v.79c0,.07.13.2.13.26-.26,4.74-.26,9.55.13,14.29.07.53-.13,1.05,0,1.51.2,1.05.46,2.04.66,3.03.4,2.5.72,5.01,1.45,7.44.59,1.84.79,3.82,1.65,5.66.66,1.32.99,2.83,1.51,4.28-1.32.79-2.57,1.58-3.82,2.31-4.08,2.57-7.9,5.47-11.46,8.69-.86.79-1.58,1.71-2.37,2.57-2.77,3.03-5.4,6.13-7.71,9.62-3.75,5.66-6.72,11.66-8.69,18.18-.66,2.04-1.05,4.15-1.71,6.19-.59,1.84-.86,3.75-1.12,5.66-.13,1.05-.13,2.17-.2,3.23-.13,2.83-.26,5.73-.26,8.56,0,2.37.2,4.74.4,7.11.13,1.45.4,2.9.66,4.35s.66,2.9,1.05,4.28c.2.72.33,1.45.59,2.11.86,2.57,1.71,5.14,2.7,7.71.59,1.58,1.12,3.1,1.91,4.54,1.25,2.44,2.63,4.81,3.95,7.18l.59.59c1.25,1.71,2.5,3.43,3.69,5.14.13.2.26.46.4.72.13.2.26.33.4.53,1.05.46,1.51,1.38,1.98,2.31.53.53,1.05,1.12,1.58,1.65,1.05.59,1.98,1.32,2.44,2.44l.26.26c.72.13,1.19.53,1.38,1.25.33.2.59.4.86.59.26.33.53.59.72.86h0c.72.07,1.25.46,1.45,1.19.13.07.33.2.46.26.66.2,1.25.4,1.45,1.19.33.2.66.46.99.66.46.26.99.46,1.45.72.72.46,1.45.99,2.17,1.45l.53.53c.92.2,1.71.53,2.24,1.38.53.26,1.12.46,1.65.72.72.2,1.51.4,1.98,1.12l.53.13c.66.33,1.25.66,1.91.92.13.07.2.13.33.2.2,0,.33.07.53.07.53.2,1.19.13,1.38.79.92.33,1.84.66,2.77.99,1.19-.07,2.17.46,3.16.86.33.13.66.26.99.4.4.07.79.07,1.19.13.46.2.92.33,1.38.53.4.07.72.07,1.12.07.72.2,1.51.4,2.24.59.4,0,.72.07,1.12.07.4.13.72.2,1.12.33.4,0,.72.07,1.12.07l2.77.4c.13.07.2.13.33.2.26-.07.53-.2.79-.2,2.44.07,4.87.2,7.38.33.2.26.4.26.59,0,1.05-.07,2.04-.13,3.1-.13h1.12c.4-.07.79-.13,1.25-.2,1.12-.2,2.31-.4,3.43-.53,1.19-.13,1.45.13,1.58,1.45.66.4.79,1.05.72,1.71,0,.07.07.2.07.26.59.33.66.86.72,1.45.07.2.13.46.26.66.66,1.51,1.32,3.03,1.98,4.54.33.59.66,1.12.99,1.65,0,.13.07.2.07.33.59.4.92.92.92,1.65.13.2.26.4.4.66.72,1.12,1.38,2.24,2.11,3.36.07.2.13.33.2.53.99.59,1.58,1.58,1.91,2.63.66.26.99.79,1.05,1.45.79.33,1.19.99,1.38,1.78.26.26.46.59.72.86.99.33,1.32,1.25,1.71,2.04.72.72,1.38,1.51,2.11,2.24.79.46,1.58.86,1.91,1.84.26.26.53.53.86.79.72.13,1.19.53,1.38,1.25.33.2.59.4.92.59.26.26.46.59.72.86,1.12.4,1.98,1.05,2.5,2.11.13.07.33.2.46.26.99.66,2.04,1.32,3.03,1.98l.79.79c.72.07,1.32.33,1.58,1.05.13.07.2.13.33.2.46.2.92.46,1.38.66.4.26.79.59,1.25.86,1.51.79,3.03,1.45,4.54,2.24,4.68,2.24,9.48,4.02,14.49,5.27,1.12.26,2.24.4,3.23.79,1.12.46,2.31.53,3.43.72,1.45.26,2.96.33,4.48.46.26.4.53.4.86.07.53,0,1.05,0,1.51.07,5.47.26,10.87.33,16.27-.59,8.1-1.38,15.87-3.69,23.19-7.44,8.17-4.22,15.35-9.62,21.6-16.4,4.74-5.14,8.76-10.8,11.86-17.13.33-.72.79-1.38,1.19-2.04.92.4,1.65.72,2.37,1.05,1.98.86,3.89,1.71,5.86,2.57,2.57,1.19,5.4,1.65,8.17,2.31.59.13,1.19.53,1.84.59,1.65.26,3.36.33,5.01.59,5.01.66,11.79.72,17.98-.26,7.11-1.12,13.9-3.16,20.22-6.52,2.83-1.51,5.6-3.16,8.3-5.01,4.35-2.96,8.23-6.59,11.72-10.54.92-1.05,1.91-2.04,2.77-3.16,1.38-1.84,2.57-3.82,3.89-5.73.13-.2.4-.26.59-.4.2.07.4.2.53.33.4,0,.72.07,1.12.07.2.07.4.2.53.26.33,0,.66,0,.99.07,1.12.33,2.17.53,3.36.59,1.12.07,2.31-.07,3.36.66.2-.26.26-.26.53.07.66-.07,1.25-.13,1.91-.13,2.83.13,5.66.4,8.56.4,2.24.07,4.48-.13,6.72-.2h1.12c.33-.07.72-.2,1.05-.26,4.15-.46,8.3-1.05,12.38-2.04,7.05-1.78,13.77-4.22,20.22-7.51,8.69-4.48,16.47-10.21,23.32-17.19,9.48-9.62,16.47-20.81,21.08-33.46,1.84-5.07,3.16-10.28,4.08-15.54,1.05-8.37,1.32-16.86.46-25.42h0l-.05-.05Z"/>
        </g>
      </g>
      <g id="Camada_1-2-2" data-name="Camada 1-2" class="cls-5">
        <path class="cls-6" d="m531.54,490.42c-1.12-11.33-4.28-22.07-9.42-32.27-6.45-12.78-15.41-23.38-26.81-32.08-6.72-5.14-14.1-9.16-22-12.25-4.35-1.65-8.76-2.96-13.31-3.95-3.56-.79-7.25-1.32-10.87-1.65-6.72-.66-13.44-.59-20.22.33-7.25.99-14.36,2.77-21.14,5.4-.33.13-.66.2-.99.33-.13-.13-.2-.2-.26-.26-.13-.26-.33-.59-.46-.86-3.56-6.59-7.9-12.51-13.17-17.78-11.46-11.39-25.1-18.51-41.03-21.14-7.64-1.25-15.28-1.25-22.92-.07-15.08,2.37-28.26,8.89-39.45,19.23-.4.33-.72.66-1.19,1.05-.46-.66-.86-1.19-1.25-1.71-2.31-3.16-4.87-6.06-7.64-8.83-13.24-13.04-29.05-20.88-47.49-23.38-6.92-.92-13.9-.99-20.88-.13-5.14.66-10.21,1.71-15.15,3.36-4.08,1.38-8.17,2.96-12.05,4.94-6.39,3.29-12.19,7.44-17.72,11.99-1.84,1.51-3.43,3.23-5.07,5.01-1.38,1.51-2.63,3.16-3.95,4.74-2.63,3.23-4.94,6.65-7.11,10.14-1.19,1.84-2.04,3.89-3.03,5.93-1.12,2.37-2.17,4.81-3.16,7.25-.46,1.05-.66,2.17-.99,3.29-.33.99-.79,1.91-1.05,2.9-.53,2.11-.92,4.22-1.38,6.39-.2.99-.46,1.91-.66,2.9-.13.79-.4,1.65-.26,2.44.13,1.05-.07,2.04-.33,2.96v.79c0,.07.13.2.13.26-.26,4.74-.26,9.55.13,14.29.07.53-.13,1.05,0,1.51.2,1.05.46,2.04.66,3.03.4,2.5.72,5.01,1.45,7.44.59,1.84.79,3.82,1.65,5.66.66,1.32.99,2.83,1.51,4.28-1.32.79-2.57,1.58-3.82,2.31-4.08,2.57-7.9,5.47-11.46,8.69-.86.79-1.58,1.71-2.37,2.57-2.77,3.03-5.4,6.13-7.71,9.62-3.75,5.66-6.72,11.66-8.69,18.18-.66,2.04-1.05,4.15-1.71,6.19-.59,1.84-.86,3.75-1.12,5.66-.13,1.05-.13,2.17-.2,3.23-.13,2.83-.26,5.73-.26,8.56,0,2.37.2,4.74.4,7.11.13,1.45.4,2.9.66,4.35s.66,2.9,1.05,4.28c.2.72.33,1.45.59,2.11.86,2.57,1.71,5.14,2.7,7.71.59,1.58,1.12,3.1,1.91,4.54,1.25,2.44,2.63,4.81,3.95,7.18.2.2.4.4.59.59,1.25,1.71,2.5,3.43,3.69,5.14.13.2.26.46.4.72.13.2.26.33.4.53,1.05.46,1.51,1.38,1.98,2.31.53.53,1.05,1.12,1.58,1.65,1.05.59,1.98,1.32,2.44,2.44l.26.26c.72.13,1.19.53,1.38,1.25.33.2.59.4.92.59.26.33.53.59.72.86h0c.72.07,1.25.46,1.45,1.19.13.07.33.2.46.26.66.2,1.25.4,1.45,1.19.33.2.66.46.99.66.46.26.99.46,1.45.72.72.46,1.45.99,2.17,1.45l.53.53c.92.2,1.71.53,2.24,1.38.53.26,1.12.46,1.65.72.72.2,1.51.4,1.98,1.12l.53.13c.66.33,1.25.66,1.91.92.13.07.2.13.33.2.2,0,.33.07.53.07.53.2,1.19.13,1.38.79.92.33,1.84.66,2.77.99,1.19-.07,2.17.46,3.16.86.33.13.66.26.99.4.4.07.79.07,1.19.13.46.2.92.33,1.38.53.4.07.72.07,1.12.07.72.2,1.51.4,2.24.59.4,0,.72.07,1.12.07.4.13.72.2,1.12.33.4,0,.72.07,1.12.07l2.77.4c.13.07.2.13.33.2.26-.07.53-.2.79-.2,2.44.07,4.87.2,7.38.33.2.33.4.33.59,0,1.05-.07,2.04-.13,3.1-.13h1.12c.4-.07.79-.13,1.25-.2,1.12-.2,2.31-.4,3.43-.53,1.19-.13,1.45.13,1.58,1.45.66.4.79,1.05.72,1.71,0,.07.07.2.07.26.59.33.66.86.72,1.45.07.2.13.46.26.66.66,1.51,1.32,3.03,1.98,4.54.33.59.66,1.12.99,1.65,0,.13.07.2.07.33.59.4.92.92.92,1.65.13.2.26.4.4.66.72,1.12,1.38,2.24,2.11,3.36.07.13.13.33.2.53.99.59,1.58,1.58,1.91,2.63.66.26.99.79,1.05,1.45.79.33,1.19.99,1.38,1.78.26.26.46.59.72.86.99.33,1.32,1.25,1.71,2.04.72.72,1.38,1.51,2.11,2.24.79.46,1.58.86,1.91,1.84.26.26.53.53.86.79.72.13,1.19.53,1.38,1.25.33.2.59.4.86.59.26.26.46.59.72.86,1.12.4,1.98,1.05,2.5,2.11.13.07.33.2.46.26.99.66,2.04,1.32,3.03,1.98.26.26.53.53.79.79.72.07,1.25.33,1.58,1.05.13.07.2.13.33.2.46.2.92.46,1.38.66.4.26.79.59,1.25.86,1.51.79,3.03,1.45,4.54,2.24,4.68,2.24,9.48,4.02,14.49,5.27,1.12.26,2.24.4,3.23.79,1.12.46,2.31.53,3.43.72,1.45.26,2.96.33,4.48.46.26.4.53.4.86.07.53,0,1.05,0,1.51.07,5.47.26,10.87.33,16.27-.59,8.1-1.38,15.87-3.69,23.19-7.44,8.17-4.22,15.35-9.62,21.6-16.4,4.74-5.14,8.76-10.8,11.86-17.13.33-.72.79-1.38,1.19-2.04.92.4,1.65.72,2.37,1.05,1.98.86,3.89,1.71,5.86,2.57,2.63,1.19,5.4,1.65,8.17,2.31.59.13,1.19.53,1.84.59,1.65.26,3.29.33,5.01.59,5.01.66,11.79.72,17.98-.26,7.11-1.12,13.83-3.16,20.22-6.52,2.83-1.51,5.6-3.16,8.3-5.01,4.35-2.96,8.23-6.59,11.66-10.54.92-1.05,1.91-2.04,2.77-3.16,1.38-1.84,2.57-3.82,3.89-5.73.13-.2.4-.26.59-.4.2.07.33.2.53.33.4,0,.72.07,1.12.07.2.07.4.2.53.26.33,0,.66,0,.99.07,1.05.33,2.17.53,3.29.59s2.31-.07,3.36.66c.2-.26.26-.26.53.07.66-.07,1.25-.13,1.91-.13,2.83.13,5.66.4,8.56.4,2.24.07,4.48-.13,6.72-.2h1.12c.33-.07.72-.2,1.05-.26,4.15-.46,8.3-1.05,12.38-2.04,6.98-1.78,13.77-4.22,20.22-7.51,8.69-4.48,16.47-10.21,23.32-17.19,9.48-9.62,16.47-20.81,21.08-33.46,1.84-5.07,3.16-10.28,4.08-15.54,1.19-8.37,1.51-16.86.59-25.42h0l-.06-.05Z"/>
      </g>
    </g>
  </g>
</svg>