<svg width="31" height="30" viewBox="0 0 33 32" fill="none" xmlns="http://www.w3.org/2000/svg">
<path d="M9.5 30C8.675 30 7.96875 29.7063 7.38125 29.1188C6.79375 28.5312 6.5 27.825 6.5 27C6.5 26.175 6.79375 25.4688 7.38125 24.8812C7.96875 24.2937 8.675 24 9.5 24C10.325 24 11.0312 24.2937 11.6187 24.8812C12.2063 25.4688 12.5 26.175 12.5 27C12.5 27.825 12.2063 28.5312 11.6187 29.1188C11.0312 29.7063 10.325 30 9.5 30ZM24.5 30C23.675 30 22.9688 29.7063 22.3813 29.1188C21.7938 28.5312 21.5 27.825 21.5 27C21.5 26.175 21.7938 25.4688 22.3813 24.8812C22.9688 24.2937 23.675 24 24.5 24C25.325 24 26.0312 24.2937 26.6188 24.8812C27.2063 25.4688 27.5 26.175 27.5 27C27.5 27.825 27.2063 28.5312 26.6188 29.1188C26.0312 29.7063 25.325 30 24.5 30ZM8.225 6L11.825 13.5H22.325L26.45 6H8.225ZM6.8 3H28.925C29.5 3 29.9375 3.25625 30.2375 3.76875C30.5375 4.28125 30.55 4.8 30.275 5.325L24.95 14.925C24.675 15.425 24.3062 15.8125 23.8438 16.0875C23.3813 16.3625 22.875 16.5 22.325 16.5H11.15L9.5 19.5H27.5V22.5H9.5C8.375 22.5 7.525 22.0063 6.95 21.0187C6.375 20.0312 6.35 19.05 6.875 18.075L8.9 14.4L3.5 3H0.5V0H5.375L6.8 3Z" fill="#0060D2"/>
</svg>
