<svg width="1200" height="514" viewBox="0 0 1200 514" fill="none" xmlns="http://www.w3.org/2000/svg">
<path d="M0 88.5668L33.3989 67.1598C95.2584 27.5109 175.595 32.1175 232.517 78.5776L258.326 99.6432C310.23 142.008 385.605 138.905 433.851 92.417C482.685 45.3637 559.182 42.832 611.019 86.5534L647.793 117.57C690.088 153.243 746.087 168.198 800.537 158.362L845.204 150.292C878.195 144.333 909.268 130.524 935.801 110.033C1012.11 51.0981 1118.84 52.0133 1194.12 112.248L1200 116.949V395.483L0 406.945V88.5668Z" fill="url(#paint0_linear_2_215)" fill-opacity="0.5"/>
<path d="M0 160.455L70.7916 92.3826C117.368 47.5945 192.476 52.9892 232.174 103.974L250.96 128.101C287.519 175.054 359.38 172.232 392.144 122.557C425.228 72.3963 498.005 70.1152 534.165 118.105L542.238 128.819C577.761 175.964 648.778 175.255 683.353 127.41C714.727 83.9931 777.356 78.6037 815.687 116.022L821.972 122.158C864.397 163.572 933.94 156.593 967.288 107.574L976.974 93.3365C1011.56 42.4927 1081.19 30.0107 1131.28 65.6712L1200 114.583V513.195H0V160.455Z" fill="url(#paint1_linear_2_215)"/>
<path d="M0 111.635L78.2351 164.611C126.573 197.343 190.427 195.49 236.786 160.012C275.818 130.141 327.953 123.712 373.073 143.207L388.705 149.961C429.871 167.747 476.626 167.363 517.495 148.903L524.815 145.596C571.439 124.536 625.704 129.566 667.662 158.835C718.03 193.971 785.056 193.621 835.053 157.959L837.69 156.078C876.824 128.166 926.976 120.729 972.526 136.085L990.22 142.051C1028.74 155.035 1070.44 155.07 1108.98 142.15L1200 111.635V513.086H0V111.635Z" fill="white" fill-opacity="0.85"/>
<defs>
<linearGradient id="paint0_linear_2_215" x1="-62.9604" y1="200.636" x2="1457.26" y2="200.636" gradientUnits="userSpaceOnUse">
<stop stop-color="white"/>
<stop offset="0.5" stop-color="white"/>
<stop offset="1" stop-color="#00A1E0"/>
</linearGradient>
<linearGradient id="paint1_linear_2_215" x1="0" y1="256.945" x2="1200" y2="256.945" gradientUnits="userSpaceOnUse">
<stop stop-color="#68DBFF"/>
<stop offset="0.0001" stop-color="#00A1E0"/>
<stop offset="0.511458" stop-color="white"/>
<stop offset="1" stop-color="#00A1E0"/>
</linearGradient>
</defs>
</svg>
