<svg width="29" height="29" viewBox="0 0 29 29" fill="none" xmlns="http://www.w3.org/2000/svg">
<path d="M12.5 12C13.325 12 14.0313 11.7063 14.6188 11.1187C15.2063 10.5312 15.5 9.825 15.5 9C15.5 8.175 15.2063 7.46875 14.6188 6.88125C14.0313 6.29375 13.325 6 12.5 6C11.675 6 10.9688 6.29375 10.3813 6.88125C9.79375 7.46875 9.5 8.175 9.5 9C9.5 9.825 9.79375 10.5312 10.3813 11.1187C10.9688 11.7063 11.675 12 12.5 12ZM12.5 18C13.625 18 14.6813 17.7625 15.6688 17.2875C16.6562 16.8125 17.5125 16.1375 18.2375 15.2625C17.3625 14.6875 16.4438 14.25 15.4813 13.95C14.5188 13.65 13.525 13.5 12.5 13.5C11.475 13.5 10.4813 13.65 9.51875 13.95C8.55625 14.25 7.6375 14.6875 6.7625 15.2625C7.4875 16.1375 8.34375 16.8125 9.33125 17.2875C10.3188 17.7625 11.375 18 12.5 18ZM26.9 28.5L19.85 21.45C18.825 22.25 17.6938 22.875 16.4562 23.325C15.2188 23.775 13.9 24 12.5 24C9.15 24 6.3125 22.8375 3.9875 20.5125C1.6625 18.1875 0.5 15.35 0.5 12C0.5 8.65 1.6625 5.8125 3.9875 3.4875C6.3125 1.1625 9.15 0 12.5 0C15.85 0 18.6875 1.1625 21.0125 3.4875C23.3375 5.8125 24.5 8.65 24.5 12C24.5 13.4 24.275 14.7188 23.825 15.9562C23.375 17.1938 22.75 18.325 21.95 19.35L29 26.4L26.9 28.5ZM12.5 21C15 21 17.125 20.125 18.875 18.375C20.625 16.625 21.5 14.5 21.5 12C21.5 9.5 20.625 7.375 18.875 5.625C17.125 3.875 15 3 12.5 3C10 3 7.875 3.875 6.125 5.625C4.375 7.375 3.5 9.5 3.5 12C3.5 14.5 4.375 16.625 6.125 18.375C7.875 20.125 10 21 12.5 21Z" fill="#0060D2"/>
</svg>
