<svg width="40" height="34" viewBox="0 0 40 34" fill="none" xmlns="http://www.w3.org/2000/svg">
<path d="M6.58325 33.3333V18H0.833252L19.9999 0.75L27.6666 7.65V2.66667H33.4166V12.825L39.1666 18H33.4166V33.3333H21.9166V21.8333H18.0833V33.3333H6.58325ZM10.4166 29.5H14.2499V18H25.7499V29.5H29.5833V14.55L19.9999 5.925L10.4166 14.55V29.5ZM16.1666 14.2146H23.8333C23.8333 13.1924 23.4499 12.3538 22.6833 11.699C21.9166 11.0441 21.0221 10.7167 19.9999 10.7167C18.9777 10.7167 18.0833 11.0441 17.3166 11.699C16.5499 12.3538 16.1666 13.1924 16.1666 14.2146Z" fill="#0060D2"/>
</svg>
