<svg width="15" height="15" viewBox="0 0 20 20" fill="none" xmlns="http://www.w3.org/2000/svg">
<path fill-rule="evenodd" clip-rule="evenodd" d="M16.3472 9.01392C16.3472 12.8799 13.2132 16.0139 
9.34717 16.0139C5.48117 16.0139 2.34717 12.8799 2.34717 9.01392C2.34717 5.14792 5.48117 2.01392 
9.34717 2.01392C13.2132 2.01392 16.3472 5.14792 16.3472 9.01392ZM16.3791 14.6316C17.6107 13.0919 
18.3472 11.1389 18.3472 9.01392C18.3472 4.04335 14.3177 0.013916 9.34717 0.013916C4.37661 0.013916 
0.347168 4.04335 0.347168 9.01392C0.347168 13.9845 4.37661 18.0139 9.34717 18.0139C11.4722 18.0139 
13.4252 17.2774 14.9649 16.0458L17.6401 18.721C18.0306 19.1115 18.6637 19.1115 19.0543 18.721C19.4448 18.3305 19.4448 17.6973 19.0543 17.3068L16.3791 14.6316Z" fill="#3bc7da"/>
</svg>
